Coordinates
version=1
nRows=19
nColumns=63
inDegrees=yes

Units are S.I. units (second, meters, Newtons, ...)
If the header above contains a line with 'inDegrees', this indicates whether rotational values are in degrees (yes) or radians (no).

endheader
time	pelvis_tilt	pelvis_list	pelvis_rotation	pelvis_tx	pelvis_ty	pelvis_tz	hip_flexion_r	hip_adduction_r	hip_rotation_r	knee_angle_r	knee_angle_r_beta	ankle_angle_r	subtalar_angle_r	mtp_angle_r	hip_flexion_l	hip_adduction_l	hip_rotation_l	knee_angle_l	knee_angle_l_beta	ankle_angle_l	subtalar_angle_l	mtp_angle_l	L5_S1_Flex_Ext	L5_S1_Lat_Bending	L5_S1_axial_rotation	L4_L5_Flex_Ext	L4_L5_Lat_Bending	L4_L5_axial_rotation	L3_L4_Flex_Ext	L3_L4_Lat_Bending	L3_L4_axial_rotation	L2_L3_Flex_Ext	L2_L3_Lat_Bending	L2_L3_axial_rotation	L1_L2_Flex_Ext	L1_L2_Lat_Bending	L1_L2_axial_rotation	L1_T12_Flex_Ext	L1_T12_Lat_Bending	L1_T12_axial_rotation	Abs_r3	Abs_r2	Abs_r1	Abs_t1	Abs_t2	neck_flexion	neck_bending	neck_rotation	arm_flex_r	arm_add_r	arm_rot_r	elbow_flex_r	pro_sup_r	wrist_flex_r	wrist_dev_r	arm_flex_l	arm_add_l	arm_rot_l	elbow_flex_l	pro_sup_l	wrist_flex_l	wrist_dev_l
2.233333	-1.243285	-1.308078	89.797562	0.211671	0.749617	0.684441	1.544216	-3.798480	-0.824531	13.326237	0.232587	26.621192	8.405136	0.000000	1.644192	1.064667	-21.320667	13.783855	0.240574	31.534102	14.636099	0.000000	-0.247363	-0.607759	1.185477	-0.459378	-0.808319	1.259569	-0.406393	-1.477705	1.259569	-0.282711	-1.477705	1.037292	-0.229701	-1.239342	0.963200	-0.141343	-0.941418	0.889108	-1.766891	-6.875090	6.593267	0.000000	0.000000	24.537875	1.030960	-2.492580	4.592216	-15.492874	68.831760	18.762334	25.916118	-0.563265	-8.249137	7.979161	-9.915054	194.122201	4.681980	24.311571	-11.503077	2.149017
2.250000	-1.268035	-1.401172	89.376390	0.211084	0.749120	0.684046	1.557400	-3.849967	-0.163829	13.048213	0.227734	26.555689	8.132286	0.000000	1.684007	1.147192	-21.840650	13.713225	0.239341	31.751911	14.779502	0.000000	-0.240131	-0.573538	1.302889	-0.445947	-0.762805	1.384320	-0.394511	-1.394499	1.384320	-0.274446	-1.394499	1.140028	-0.222985	-1.169558	1.058597	-0.137211	-0.888410	0.977167	-1.715231	-6.487972	7.246279	0.000000	0.000000	24.617437	0.976500	-2.179237	4.509134	-15.562010	67.377767	19.015551	27.133282	-1.936685	-9.849573	8.154367	-9.571659	194.316790	4.789561	23.021180	-11.443655	2.044145
2.266667	-1.289751	-1.507286	89.018519	0.210374	0.748530	0.683609	1.552827	-3.904940	0.427450	12.730216	0.222184	26.509350	7.893269	0.000000	1.742264	1.231626	-22.304665	13.618773	0.237692	32.007746	14.999415	0.000000	-0.231542	-0.533878	1.396555	-0.429997	-0.710057	1.483840	-0.380401	-1.298070	1.483840	-0.264630	-1.298070	1.221986	-0.215010	-1.088683	1.134701	-0.132303	-0.826976	1.047417	-1.653883	-6.039330	7.767223	0.000000	0.000000	24.758980	0.908393	-1.704159	4.569696	-15.643822	66.558787	19.178753	27.763079	-3.265651	-11.460347	8.277833	-9.206788	194.589259	4.837510	21.500920	-11.320092	1.855013
2.283333	-1.303354	-1.615414	88.740857	0.209562	0.747880	0.683124	1.517549	-3.950257	0.999657	12.375438	0.215992	26.464011	7.587315	0.000000	1.811138	1.316038	-22.629402	13.509124	0.235779	32.278129	15.204691	0.000000	-0.222795	-0.489476	1.467129	-0.413753	-0.651004	1.558824	-0.366031	-1.190113	1.558824	-0.254633	-1.190113	1.283737	-0.206888	-0.998140	1.192042	-0.127305	-0.758199	1.100346	-1.591405	-5.537055	8.159729	0.000000	0.000000	24.954830	0.796321	-1.169177	4.675637	-15.673490	66.203169	19.238824	28.180262	-4.484276	-13.027879	8.366587	-8.842949	194.573456	4.875537	19.938600	-11.148446	1.569318
2.300000	-1.316821	-1.718138	88.564340	0.208694	0.747221	0.682635	1.446578	-3.993738	1.496434	11.989994	0.209265	26.415809	7.257315	0.000000	1.888964	1.403010	-22.797567	13.398170	0.233842	32.532841	15.396098	0.000000	-0.214659	-0.443126	1.514876	-0.398642	-0.589358	1.609556	-0.352663	-1.077417	1.609556	-0.245333	-1.077417	1.325517	-0.199332	-0.903623	1.230837	-0.122656	-0.686402	1.136157	-1.533285	-5.012732	8.425286	0.000000	0.000000	25.205879	0.631767	-0.690081	4.828055	-15.700698	65.851052	19.337290	28.316165	-5.611251	-14.372949	8.446762	-8.461354	194.821892	4.884461	18.091135	-10.912464	1.167037
2.316667	-1.332723	-1.805145	88.499909	0.207818	0.746596	0.682144	1.334441	-4.032579	1.917270	11.587870	0.202246	26.356852	6.883368	0.000000	1.962743	1.492757	-22.790756	13.287389	0.231909	32.745483	15.549007	0.000000	-0.208209	-0.396291	1.535101	-0.386664	-0.527067	1.631045	-0.342066	-0.963542	1.631045	-0.237962	-0.963542	1.343214	-0.193343	-0.808117	1.247270	-0.118970	-0.613855	1.151326	-1.487214	-4.482925	8.537773	0.000000	0.000000	25.497739	0.404049	-0.318702	5.041631	-15.657219	65.946357	19.372258	28.104992	-6.537753	-15.480287	8.535505	-8.114320	194.676769	4.955903	16.314219	-10.657875	0.648132
2.333333	-1.355052	-1.869109	88.541238	0.207007	0.746036	0.681666	1.184076	-4.067506	2.258548	11.189140	0.195287	26.282495	6.463416	0.000000	2.032059	1.581244	-22.611926	13.204887	0.230469	32.902979	15.633210	0.000000	-0.204503	-0.350753	1.530840	-0.379783	-0.466501	1.626518	-0.335979	-0.852820	1.626518	-0.233727	-0.852820	1.339485	-0.189902	-0.715255	1.243808	-0.116853	-0.543316	1.148130	-1.460747	-3.967783	8.514073	0.000000	0.000000	25.825571	0.114181	-0.121044	5.318192	-15.531993	66.571134	19.330478	27.406140	-7.180987	-16.374373	8.648162	-7.794640	194.429873	5.063579	14.379578	-10.335412	0.016242
2.350000	-1.364489	-1.917609	88.650286	0.206267	0.745495	0.681211	1.025162	-4.079977	2.542806	10.826019	0.188950	26.205133	6.009519	0.000000	2.100502	1.649759	-22.293020	13.156536	0.229625	33.023640	15.629301	0.000000	-0.202593	-0.303948	1.514257	-0.376236	-0.404250	1.608898	-0.332841	-0.739018	1.608898	-0.231544	-0.739018	1.324975	-0.188128	-0.619810	1.230334	-0.115762	-0.470815	1.135693	-1.447104	-3.438315	8.421842	0.000000	0.000000	26.193986	-0.317912	-0.191153	5.375465	-15.530169	64.985843	19.735081	28.326858	-7.955717	-16.618450	8.807640	-7.535920	193.474750	5.307716	12.672804	-9.977064	-0.675535
2.366667	-1.383648	-1.946977	88.846935	0.205663	0.745035	0.680782	0.849676	-4.090144	2.738791	10.497378	0.183214	26.109539	5.527473	0.000000	2.156963	1.717359	-21.839386	13.129324	0.229150	33.075614	15.538181	0.000000	-0.203053	-0.260310	1.472302	-0.377090	-0.346212	1.564321	-0.333596	-0.632917	1.564321	-0.232070	-0.632917	1.288265	-0.188555	-0.530824	1.196246	-0.116025	-0.403220	1.104227	-1.450390	-2.944676	8.188504	0.000000	0.000000	26.570077	-0.885078	-0.523016	5.422469	-15.504474	63.009793	20.222936	29.571962	-8.526137	-16.412551	8.993874	-7.335791	192.271575	5.585342	10.930874	-9.504959	-1.450929
2.383333	-1.425841	-1.960972	89.059023	0.205298	0.744668	0.680362	0.673581	-4.114904	2.842956	10.208839	0.178178	26.010437	5.113784	0.000000	2.189658	1.793959	-21.365806	13.110548	0.228822	33.066760	15.398337	0.000000	-0.204340	-0.222433	1.417898	-0.379479	-0.295836	1.506516	-0.335710	-0.540824	1.506516	-0.233540	-0.540824	1.240660	-0.189750	-0.453585	1.152042	-0.116760	-0.344549	1.063423	-1.459578	-2.516207	7.885921	0.000000	0.000000	26.947214	-1.582418	-1.159508	5.475493	-15.461627	60.848997	20.767646	30.869728	-8.887698	-15.823280	9.171684	-7.285593	189.928112	6.006132	9.479074	-8.981138	-2.192348
2.400000	-1.474494	-1.949232	89.314463	0.205163	0.744430	0.679910	0.480913	-4.134780	2.848664	9.963527	0.173896	25.906988	4.762649	0.000000	2.189357	1.858567	-20.848361	13.111603	0.228841	33.011724	15.198010	0.000000	-0.205735	-0.189572	1.347694	-0.382071	-0.252131	1.431925	-0.338002	-0.460926	1.431925	-0.235135	-0.460926	1.179232	-0.191046	-0.386575	1.095001	-0.117557	-0.293647	1.010770	-1.469545	-2.144477	7.495469	0.000000	0.000000	27.205701	-2.363673	-2.106199	5.503041	-15.395327	58.482820	21.361723	32.163017	-8.985241	-14.849875	9.341467	-7.366158	186.804031	6.503789	8.385280	-8.445661	-2.922778
2.416667	-1.539044	-1.921812	89.537234	0.205320	0.744322	0.679447	0.297356	-4.159101	2.840298	9.758439	0.170317	25.791707	4.454111	0.000000	2.140182	1.929915	-20.385693	13.072573	0.228159	32.895390	14.971871	0.000000	-0.206778	-0.162852	1.276992	-0.384008	-0.216593	1.356804	-0.339716	-0.395958	1.356804	-0.236327	-0.395958	1.117368	-0.192014	-0.332088	1.037556	-0.118153	-0.252258	0.957744	-1.476997	-1.842213	7.102246	0.000000	0.000000	27.381666	-3.234134	-3.357962	5.409710	-15.307034	55.376514	22.042416	34.221419	-8.929165	-13.516961	9.532040	-7.526783	183.338239	7.011917	7.169855	-7.783839	-3.659684
2.433333	-1.633569	-1.871483	89.740298	0.205774	0.744349	0.678985	0.113272	-4.206460	2.755181	9.586415	0.167315	25.690426	4.274329	0.000000	2.045727	2.017480	-19.986668	13.009279	0.227055	32.746686	14.754323	0.000000	-0.207593	-0.145153	1.199756	-0.385520	-0.193053	1.274741	-0.341054	-0.352924	1.274741	-0.237258	-0.352924	1.049787	-0.192771	-0.295995	0.974802	-0.118618	-0.224842	0.899817	-1.482814	-1.641996	6.672685	0.000000	0.000000	27.396183	-4.073839	-4.816974	5.348385	-15.190013	52.737843	22.658857	35.907633	-8.673043	-12.153658	9.677782	-7.866485	178.666186	7.659610	6.503873	-7.144628	-4.279034
2.450000	-1.724878	-1.794144	89.889166	0.206459	0.744490	0.678553	-0.067239	-4.244825	2.672931	9.445004	0.164846	25.590013	4.173779	0.000000	1.890925	2.099341	-19.684984	12.885113	0.224888	32.583269	14.567392	0.000000	-0.209431	-0.131014	1.126896	-0.388935	-0.174249	1.197327	-0.344075	-0.318548	1.197327	-0.239359	-0.318548	0.986034	-0.194478	-0.267164	0.915603	-0.119669	-0.202941	0.845172	-1.495948	-1.482058	6.267460	0.000000	0.000000	27.235236	-4.879295	-6.399669	5.137045	-15.222214	48.388067	23.581732	39.094762	-8.513822	-10.730801	9.819635	-8.298737	173.237123	8.392890	6.128433	-6.516729	-4.807926
2.466667	-1.839161	-1.687820	89.950227	0.207484	0.744744	0.678158	-0.235495	-4.290757	2.672515	9.340336	0.163020	25.496080	4.095123	0.000000	1.671819	2.192807	-19.578091	12.696071	0.221588	32.423018	14.513372	0.000000	-0.212133	-0.123891	1.059057	-0.393952	-0.164775	1.125249	-0.348513	-0.301228	1.125249	-0.242447	-0.301228	0.926675	-0.196987	-0.252638	0.860484	-0.121213	-0.191907	0.794293	-1.515245	-1.401475	5.890160	0.000000	0.000000	26.862323	-5.546124	-7.929781	5.086649	-15.112310	46.149866	24.074817	41.035616	-8.288615	-9.695952	9.907592	-8.849896	167.283416	9.229204	5.748812	-5.943459	-5.239887
2.483333	-1.967333	-1.551815	89.967163	0.208702	0.745075	0.677835	-0.396345	-4.347796	2.646958	9.272833	0.161841	25.433755	4.127620	0.000000	1.408870	2.292114	-19.575162	12.473029	0.217695	32.279352	14.556994	0.000000	-0.218587	-0.121363	1.000988	-0.405937	-0.161413	1.063550	-0.359116	-0.295083	1.063550	-0.249823	-0.295083	0.875865	-0.202979	-0.247484	0.813303	-0.124900	-0.187992	0.750741	-1.561342	-1.372888	5.567196	0.000000	0.000000	26.288593	-6.110964	-9.415414	5.133300	-14.895682	45.643232	24.153345	41.868500	-7.984293	-9.117088	10.000217	-9.480827	160.799744	10.155875	5.694758	-5.426789	-5.546447
2.500000	-2.099413	-1.406583	89.903671	0.210063	0.745413	0.677550	-0.522315	-4.415371	2.584094	9.247106	0.161392	25.419804	4.344905	0.000000	1.112312	2.400204	-19.678141	12.190813	0.212770	32.161253	14.662297	0.000000	-0.227281	-0.119431	0.948949	-0.422083	-0.158843	1.008258	-0.373400	-0.290385	1.008258	-0.259759	-0.290385	0.830330	-0.211053	-0.243544	0.771021	-0.129868	-0.184999	0.711712	-1.623445	-1.351027	5.277769	0.000000	0.000000	25.554987	-6.504499	-10.574876	5.308482	-14.586910	47.104098	23.775036	41.701668	-7.756133	-8.974409	10.051164	-10.148921	153.905824	11.130827	5.783073	-4.970487	-5.793746
2.516667	-2.227543	-1.272880	89.756796	0.211518	0.745706	0.677254	-0.594821	-4.487601	2.502970	9.265404	0.161712	25.466473	4.734273	0.000000	0.796275	2.513407	-19.881589	11.839506	0.206638	32.066349	14.830650	0.000000	-0.236240	-0.115886	0.905030	-0.438721	-0.154128	0.961594	-0.388118	-0.281765	0.961594	-0.269998	-0.281765	0.791901	-0.219372	-0.236315	0.735337	-0.134987	-0.179507	0.678772	-1.687436	-1.310926	5.033503	0.000000	0.000000	24.694094	-6.796686	-11.397069	5.589337	-14.211539	50.305533	22.962366	40.574045	-7.540138	-9.213131	10.057736	-10.813058	146.914951	12.108647	6.127697	-4.603796	-5.958030
2.533333	-2.319408	-1.166812	89.552589	0.212945	0.745922	0.676937	-0.611862	-4.532485	2.386048	9.314806	0.162574	25.550473	5.250997	0.000000	0.485228	2.600686	-20.160855	11.439944	0.199665	32.001968	15.056354	0.000000	-0.244286	-0.105056	0.861936	-0.453664	-0.139725	0.915807	-0.401338	-0.255434	0.915807	-0.279195	-0.255434	0.754194	-0.226844	-0.214231	0.700323	-0.139585	-0.162732	0.646452	-1.744913	-1.188418	4.793830	0.000000	0.000000	23.730968	-7.025574	-11.795446	5.987221	-13.831769	55.151402	21.795657	38.472598	-7.351495	-9.790385	10.008748	-11.442450	139.939537	13.042769	6.513491	-4.253258	-6.084611
